<svg width="18" height="16" viewBox="0 0 18 16" fill="none" xmlns="http://www.w3.org/2000/svg">
<g id="Group">
<path id="Vector" d="M13.6292 4.84159C13.3003 4.6536 12.8773 4.6536 12.5013 4.84159L9.86945 6.3925L8.08355 7.37945L5.49869 8.93036C5.16971 9.11835 4.74674 9.11835 4.37076 8.93036L2.34987 7.70843C2.02089 7.52044 1.7859 7.14446 1.7859 6.72148V4.37161C1.7859 3.99563 1.97389 3.61965 2.34987 3.38467L4.37076 2.20973C4.69974 2.02174 5.12272 2.02174 5.49869 2.20973L7.51958 3.43166C7.84856 3.61965 8.08355 3.99563 8.08355 4.41861V5.96952L9.86945 4.93558V3.33767C9.86945 2.96169 9.68146 2.58571 9.30548 2.35072L5.54569 0.141847C5.21671 -0.0461429 4.79373 -0.0461429 4.41775 0.141847L0.563969 2.39772C0.18799 2.58571 0 2.96169 0 3.33767V7.75542C0 8.1314 0.18799 8.50738 0.563969 8.74237L4.37076 10.9512C4.69974 11.1392 5.12272 11.1392 5.49869 10.9512L8.08355 9.44733L9.86945 8.41339L12.4543 6.90947C12.7833 6.72148 13.2063 6.72148 13.5822 6.90947L15.6031 8.08441C15.9321 8.2724 16.1671 8.64837 16.1671 9.07135V11.4212C16.1671 11.7972 15.9791 12.1732 15.6031 12.4082L13.6292 13.5831C13.3003 13.7711 12.8773 13.7711 12.5013 13.5831L10.4804 12.4082C10.1514 12.2202 9.91645 11.8442 9.91645 11.4212V9.9173L8.13055 10.9512V12.5022C8.13055 12.8781 8.31854 13.2541 8.69452 13.4891L12.5013 15.698C12.8303 15.886 13.2533 15.886 13.6292 15.698L17.436 13.4891C17.765 13.3011 18 12.9251 18 12.5022V8.03741C18 7.66143 17.812 7.28545 17.436 7.05046L13.6292 4.84159Z" fill="#8247E5"/>
</g>
</svg>
