<svg width="250" height="250" viewBox="0 0 250 250" fill="none" xmlns="http://www.w3.org/2000/svg">
<g clip-path="url(#clip0_42_4078)">
<path d="M125 229.167C182.53 229.167 229.166 182.53 229.166 125C229.166 67.4704 182.53 20.8333 125 20.8333C67.47 20.8333 20.833 67.4704 20.833 125C20.833 182.53 67.47 229.167 125 229.167Z" fill="url(#paint0_linear_42_4078)"/>
<g filter="url(#filter0_f_42_4078)">
<path d="M131.34 201.087C169.86 201.087 201.087 169.861 201.087 131.341C201.087 92.8207 169.86 61.5942 131.34 61.5942C92.8203 61.5942 61.5938 92.8207 61.5938 131.341C61.5938 169.861 92.8203 201.087 131.34 201.087Z" fill="url(#paint1_linear_42_4078)"/>
</g>
<path fill-rule="evenodd" clip-rule="evenodd" d="M56.2467 82.0472C57.9895 82.0472 59.4022 80.6344 59.4022 78.8917C59.4022 77.149 57.9895 75.7362 56.2467 75.7362C54.504 75.7362 53.0913 77.149 53.0913 78.8917C53.0913 80.6344 54.504 82.0472 56.2467 82.0472ZM56.2467 84.4139C59.2965 84.4139 61.7689 81.9415 61.7689 78.8917C61.7689 75.8419 59.2965 73.3696 56.2467 73.3696C53.197 73.3696 50.7246 75.8419 50.7246 78.8917C50.7246 81.9415 53.197 84.4139 56.2467 84.4139Z" fill="white"/>
<path fill-rule="evenodd" clip-rule="evenodd" d="M46.2828 179.873C48.0256 179.873 49.4384 178.46 49.4384 176.717C49.4384 174.975 48.0256 173.563 46.2828 173.563C44.5402 173.563 43.1274 174.975 43.1274 176.717C43.1274 178.46 44.5402 179.873 46.2828 179.873ZM46.2828 182.24C49.3327 182.24 51.805 179.767 51.805 176.717C51.805 173.668 49.3327 171.196 46.2828 171.196C43.2331 171.196 40.7607 173.668 40.7607 176.717C40.7607 179.767 43.2331 182.24 46.2828 182.24Z" fill="white"/>
<path fill-rule="evenodd" clip-rule="evenodd" d="M193.022 46.7211C194.764 46.7211 196.178 45.3083 196.178 43.5656C196.178 41.8229 194.764 40.4102 193.022 40.4102C191.279 40.4102 189.867 41.8229 189.867 43.5656C189.867 45.3083 191.279 46.7211 193.022 46.7211ZM193.022 49.0878C196.072 49.0878 198.544 46.6154 198.544 43.5656C198.544 40.5159 196.072 38.0435 193.022 38.0435C189.972 38.0435 187.5 40.5159 187.5 43.5656C187.5 46.6154 189.972 49.0878 193.022 49.0878Z" fill="white"/>
<path d="M59.231 38.2144C59.4631 37.2529 60.8308 37.2529 61.0628 38.2144L61.844 41.4505C61.9269 41.794 62.1952 42.0623 62.5388 42.1453L65.7749 42.9265C66.7364 43.1585 66.7364 44.5262 65.7749 44.7583L62.5388 45.5394C62.1952 45.6224 61.9269 45.8906 61.844 46.2343L61.0628 49.4703C60.8308 50.4318 59.4631 50.4318 59.231 49.4703L58.4499 46.2343C58.3669 45.8906 58.0986 45.6224 57.755 45.5394L54.519 44.7583C53.5575 44.5262 53.5575 43.1585 54.519 42.9265L57.755 42.1453C58.0986 42.0623 58.3669 41.794 58.4499 41.4505L59.231 38.2144Z" fill="white"/>
<path d="M204.976 71.1878C205.23 70.1339 206.729 70.1339 206.984 71.1878L207.84 74.7349C207.931 75.1116 208.225 75.4057 208.601 75.4966L212.148 76.3529C213.203 76.6072 213.203 78.1063 212.148 78.3607L208.601 79.217C208.225 79.3079 207.931 79.602 207.84 79.9786L206.984 83.5258C206.729 84.5797 205.23 84.5797 204.976 83.5258L204.119 79.9786C204.029 79.602 203.735 79.3079 203.358 79.217L199.811 78.3607C198.757 78.1063 198.757 76.6072 199.811 76.3529L203.358 75.4966C203.735 75.4057 204.029 75.1116 204.119 74.7349L204.976 71.1878Z" fill="url(#paint2_linear_42_4078)"/>
<path d="M49.8469 200.396C51.0461 200.204 52.0036 201.382 51.5702 202.517L48.6454 210.175C48.2121 211.31 46.713 211.55 45.9471 210.608L40.7769 204.245C40.0108 203.303 40.5525 201.885 41.7518 201.693L49.8469 200.396Z" fill="url(#paint3_linear_42_4078)"/>
<path d="M191.103 182.977C190.803 181.8 191.889 180.74 193.059 181.068L200.952 183.286C202.12 183.615 202.496 185.086 201.627 185.934L195.76 191.66C194.89 192.509 193.429 192.098 193.129 190.921L191.103 182.977Z" fill="url(#paint4_linear_42_4078)"/>
<g filter="url(#filter1_f_42_4078)">
<path d="M180.277 205.132C180.277 210.721 153.765 215.251 121.063 215.251C88.3597 215.251 61.8486 210.721 61.8486 205.132C61.8486 199.543 88.3597 195.014 121.063 195.014C153.765 195.014 180.277 199.543 180.277 205.132Z" fill="url(#paint5_radial_42_4078)"/>
</g>
<g filter="url(#filter2_i_42_4078)">
<path d="M122.214 59.8648L83.6469 66.6653C80.5485 67.2117 78.4797 70.1663 79.026 73.2646L88.7462 128.391C89.2924 131.489 92.2472 133.558 95.3455 133.011L133.913 126.211C137.012 125.665 139.08 122.71 138.534 119.612L128.814 64.4857C128.267 61.3874 125.312 59.3184 122.214 59.8648Z" fill="url(#paint6_linear_42_4078)"/>
</g>
<path d="M122.773 88.2022L92.8134 93.485C91.8045 93.6629 91.1309 94.6249 91.3088 95.6338L91.3099 95.6397C91.4877 96.6485 92.4498 97.3222 93.4586 97.1443L123.419 91.8615C124.427 91.6836 125.101 90.7215 124.924 89.7127L124.923 89.7068C124.744 88.6979 123.782 88.0243 122.773 88.2022Z" fill="url(#paint7_linear_42_4078)"/>
<path d="M127.331 113.947L97.6285 119.184C96.6283 119.361 95.9572 120.296 96.1295 121.273L96.1305 121.28C96.3029 122.257 97.2534 122.906 98.2536 122.73L127.956 117.492C128.957 117.316 129.627 116.381 129.455 115.404L129.454 115.397C129.282 114.42 128.331 113.77 127.331 113.947Z" fill="url(#paint8_linear_42_4078)"/>
<path d="M124.955 100.477L95.2525 105.714C94.2523 105.891 93.5812 106.826 93.7536 107.803L93.7546 107.809C93.9268 108.787 94.8774 109.436 95.8776 109.259L125.58 104.022C126.58 103.845 127.252 102.91 127.079 101.933L127.079 101.927C126.906 100.95 125.955 100.3 124.955 100.477Z" fill="url(#paint9_linear_42_4078)"/>
<path d="M100.405 72.4884L91.6503 74.0322C89.7109 74.3742 88.4159 76.2236 88.7579 78.1629L89.1863 80.5926C89.5283 82.5319 91.3776 83.8269 93.317 83.4849L102.072 81.9412C104.011 81.5992 105.307 79.7499 104.964 77.8105L104.536 75.3808C104.194 73.4414 102.345 72.1465 100.405 72.4884Z" fill="#A259FF"/>
<g filter="url(#filter3_i_42_4078)">
<path d="M168.177 75.0662H117.15C114.772 75.0662 112.845 76.9938 112.845 79.3716V103.356C112.845 105.734 114.772 107.661 117.15 107.661H168.177C170.555 107.661 172.482 105.734 172.482 103.356V79.3716C172.482 76.9938 170.555 75.0662 168.177 75.0662Z" fill="url(#paint10_linear_42_4078)"/>
</g>
<path d="M125.44 96.3094C128.173 96.3094 130.39 94.0933 130.39 91.3596C130.39 88.6259 128.173 86.4099 125.44 86.4099C122.706 86.4099 120.49 88.6259 120.49 91.3596C120.49 94.0933 122.706 96.3094 125.44 96.3094Z" fill="white"/>
<path d="M143.129 96.3094C145.863 96.3094 148.078 94.0933 148.078 91.3596C148.078 88.6259 145.863 86.4099 143.129 86.4099C140.395 86.4099 138.179 88.6259 138.179 91.3596C138.179 94.0933 140.395 96.3094 143.129 96.3094Z" fill="white"/>
<path d="M160.817 96.3094C163.551 96.3094 165.767 94.0933 165.767 91.3596C165.767 88.6259 163.551 86.4099 160.817 86.4099C158.084 86.4099 155.867 88.6259 155.867 91.3596C155.867 94.0933 158.084 96.3094 160.817 96.3094Z" fill="white"/>
<path fill-rule="evenodd" clip-rule="evenodd" d="M116.139 161.244C116.566 158.818 118.88 157.198 121.306 157.626L146.795 162.12C150.277 162.735 153.425 164.351 155.656 166.688C157.886 169.023 159.397 172.343 158.749 176.019C158.101 179.695 155.546 182.298 152.652 183.731C149.757 185.165 146.245 185.61 142.761 184.996L82.1977 174.317C79.7715 173.889 78.1515 171.575 78.5793 169.149C79.0071 166.723 81.3207 165.103 83.7469 165.531L144.311 176.21C146.117 176.528 147.672 176.242 148.693 175.736C149.715 175.23 149.925 174.688 149.963 174.47C150.001 174.253 149.99 173.674 149.204 172.85C148.418 172.026 147.054 171.225 145.246 170.907L119.652 165.504C117.227 165.076 115.71 163.67 116.139 161.244Z" fill="url(#paint11_linear_42_4078)"/>
<path fill-rule="evenodd" clip-rule="evenodd" d="M165.37 115.83C166.328 113.771 168.551 112.613 170.787 113.007L190.769 116.531C193.498 117.012 195.32 119.613 194.839 122.343C194.357 125.071 191.756 126.892 189.027 126.411L172.838 123.556L163.275 144.084C162.105 146.596 159.121 147.683 156.609 146.514C154.098 145.343 153.01 142.359 154.181 139.848L165.37 115.83Z" fill="url(#paint12_linear_42_4078)"/>
<path d="M94.1482 192.088C100.059 193.131 105.696 189.183 106.738 183.273C107.78 177.362 103.833 171.726 97.9225 170.683C92.0117 169.641 86.3751 173.588 85.3329 179.499C84.2907 185.41 88.2375 191.046 94.1482 192.088Z" fill="url(#paint13_linear_42_4078)"/>
<path d="M160.761 124.9L87.0078 111.895C81.4792 110.921 76.5687 114.89 76.9539 120.016L77.8749 149.93C78.1543 153.633 81.1762 156.757 85.1691 157.461L149.458 173.135L167.447 135.986C171.592 128.462 166.303 125.877 160.761 124.9Z" fill="url(#paint14_linear_42_4078)"/>
<path d="M94.789 186.727C97.7585 187.25 100.59 185.267 101.114 182.298C101.637 179.329 99.6547 176.497 96.6851 175.973C93.7156 175.449 90.8839 177.432 90.3602 180.402C89.8366 183.372 91.8195 186.203 94.789 186.727Z" fill="url(#paint15_linear_42_4078)"/>
<mask id="mask0_42_4078" style="mask-type:alpha" maskUnits="userSpaceOnUse" x="76" y="111" width="93" height="63">
<path d="M160.761 124.9L87.0078 111.895C81.4792 110.921 76.5687 114.89 76.9539 120.016L77.8749 149.93C78.1543 153.633 81.1762 156.757 85.1691 157.461L149.458 173.135L167.447 135.986C169.564 131.288 166.303 125.877 160.761 124.9Z" fill="url(#paint16_linear_42_4078)"/>
</mask>
<g mask="url(#mask0_42_4078)">
<path d="M125.075 144.625C125.395 142.931 127.028 141.813 128.723 142.126C130.417 142.439 131.531 144.066 131.211 145.759L126.989 168.09C126.67 169.783 125.037 170.901 123.343 170.588C121.648 170.275 120.534 168.649 120.854 166.956L125.075 144.625Z" fill="#A259FF"/>
<path d="M180.173 130.102C181.587 130.347 182.539 131.694 182.3 133.11L182.126 134.135C181.886 135.551 180.545 136.499 179.13 136.254L76.0068 118.343C74.5921 118.097 73.6398 116.75 73.8798 115.335L74.0536 114.31C74.2935 112.894 75.6349 111.946 77.0496 112.191L180.173 130.102Z" fill="#A259FF"/>
<path d="M142.431 147.761C142.751 146.068 144.384 144.949 146.078 145.263C147.772 145.576 148.887 147.203 148.566 148.896L144.345 171.227C144.025 172.919 142.392 174.038 140.697 173.725C139.003 173.412 137.889 171.785 138.209 170.092L142.431 147.761Z" fill="#A259FF"/>
<path d="M107.723 141.488C108.043 139.795 109.676 138.677 111.37 138.989C113.064 139.303 114.179 140.929 113.858 142.622L109.637 164.953C109.317 166.646 107.684 167.765 105.989 167.452C104.295 167.139 103.181 165.512 103.501 163.819L107.723 141.488Z" fill="#A259FF"/>
<path d="M90.1698 138.394C90.4899 136.701 92.1228 135.583 93.8171 135.895C95.5114 136.208 96.6256 137.835 96.3055 139.528L92.0841 161.859C91.7641 163.552 90.1311 164.67 88.4367 164.358C86.7424 164.044 85.6283 162.418 85.9484 160.725L90.1698 138.394Z" fill="#A259FF"/>
<path d="M74.9279 112.209C75.2521 110.371 77.005 109.143 78.8433 109.468L168.97 125.359C170.808 125.683 172.035 127.437 171.711 129.275C171.386 131.113 169.634 132.341 167.796 132.017L77.6695 116.124C75.8312 115.801 74.6038 114.047 74.9279 112.209Z" fill="url(#paint17_linear_42_4078)"/>
</g>
</g>
<defs>
<filter id="filter0_f_42_4078" x="7.59375" y="7.59421" width="247.493" height="247.493" filterUnits="userSpaceOnUse" color-interpolation-filters="sRGB">
<feFlood flood-opacity="0" result="BackgroundImageFix"/>
<feBlend mode="normal" in="SourceGraphic" in2="BackgroundImageFix" result="shape"/>
<feGaussianBlur stdDeviation="27" result="effect1_foregroundBlur_42_4078"/>
</filter>
<filter id="filter1_f_42_4078" x="41.1612" y="174.326" width="159.804" height="61.6121" filterUnits="userSpaceOnUse" color-interpolation-filters="sRGB">
<feFlood flood-opacity="0" result="BackgroundImageFix"/>
<feBlend mode="normal" in="SourceGraphic" in2="BackgroundImageFix" result="shape"/>
<feGaussianBlur stdDeviation="10.3437" result="effect1_foregroundBlur_42_4078"/>
</filter>
<filter id="filter2_i_42_4078" x="78.9385" y="59.7773" width="62.0681" height="78.8854" filterUnits="userSpaceOnUse" color-interpolation-filters="sRGB">
<feFlood flood-opacity="0" result="BackgroundImageFix"/>
<feBlend mode="normal" in="SourceGraphic" in2="BackgroundImageFix" result="shape"/>
<feColorMatrix in="SourceAlpha" type="matrix" values="0 0 0 0 0 0 0 0 0 0 0 0 0 0 0 0 0 0 127 0" result="hardAlpha"/>
<feOffset dx="2.38455" dy="5.56394"/>
<feGaussianBlur stdDeviation="5.96137"/>
<feComposite in2="hardAlpha" operator="arithmetic" k2="-1" k3="1"/>
<feColorMatrix type="matrix" values="0 0 0 0 0.104618 0 0 0 0 0.465612 0 0 0 0 0.545833 0 0 0 0.15 0"/>
<feBlend mode="normal" in2="shape" result="effect1_innerShadow_42_4078"/>
</filter>
<filter id="filter3_i_42_4078" x="112.845" y="75.0662" width="65.2635" height="36.3457" filterUnits="userSpaceOnUse" color-interpolation-filters="sRGB">
<feFlood flood-opacity="0" result="BackgroundImageFix"/>
<feBlend mode="normal" in="SourceGraphic" in2="BackgroundImageFix" result="shape"/>
<feColorMatrix in="SourceAlpha" type="matrix" values="0 0 0 0 0 0 0 0 0 0 0 0 0 0 0 0 0 0 127 0" result="hardAlpha"/>
<feOffset dx="5.62585" dy="3.75056"/>
<feGaussianBlur stdDeviation="6.09467"/>
<feComposite in2="hardAlpha" operator="arithmetic" k2="-1" k3="1"/>
<feColorMatrix type="matrix" values="0 0 0 0 0.104618 0 0 0 0 0.465612 0 0 0 0 0.545833 0 0 0 0.09 0"/>
<feBlend mode="normal" in2="shape" result="effect1_innerShadow_42_4078"/>
</filter>
<linearGradient id="paint0_linear_42_4078" x1="49.8941" y1="20.8334" x2="208.897" y2="53.9321" gradientUnits="userSpaceOnUse">
<stop stop-color="#A259FF"/>
<stop offset="1" stop-color="#3B3B3B"/>
</linearGradient>
<linearGradient id="paint1_linear_42_4078" x1="161.231" y1="187.802" x2="114.714" y2="182.499" gradientUnits="userSpaceOnUse">
<stop stop-color="#A259FF" stop-opacity="0"/>
<stop offset="1" stop-color="#FF6250"/>
</linearGradient>
<linearGradient id="paint2_linear_42_4078" x1="208.956" y1="73.4904" x2="222.298" y2="83.9702" gradientUnits="userSpaceOnUse">
<stop stop-color="#A259FF"/>
<stop offset="1" stop-color="#377DF7"/>
</linearGradient>
<linearGradient id="paint3_linear_42_4078" x1="51.0836" y1="204.281" x2="50.6379" y2="217.556" gradientUnits="userSpaceOnUse">
<stop stop-color="#A259FF"/>
<stop offset="1" stop-color="#377DF7"/>
</linearGradient>
<linearGradient id="paint4_linear_42_4078" x1="194.86" y1="181.393" x2="208.12" y2="180.632" gradientUnits="userSpaceOnUse">
<stop stop-color="#A259FF"/>
<stop offset="1" stop-color="#377DF7"/>
</linearGradient>
<radialGradient id="paint5_radial_42_4078" cx="0" cy="0" r="1" gradientUnits="userSpaceOnUse" gradientTransform="translate(121.063 205.132) rotate(90) scale(10.1188 59.2142)">
<stop stop-color="#2B2B2B"/>
<stop offset="1" stop-color="#2B2B2B" stop-opacity="0"/>
</radialGradient>
<linearGradient id="paint6_linear_42_4078" x1="86.0976" y1="66.2331" x2="136.257" y2="64.6874" gradientUnits="userSpaceOnUse">
<stop stop-color="#A259FF"/>
<stop offset="1" stop-color="#3B3B3B"/>
</linearGradient>
<linearGradient id="paint7_linear_42_4078" x1="118.271" y1="91.7018" x2="114.979" y2="81.9421" gradientUnits="userSpaceOnUse">
<stop stop-color="#A259FF"/>
<stop offset="0.666667" stop-color="white"/>
</linearGradient>
<linearGradient id="paint8_linear_42_4078" x1="122.857" y1="117.357" x2="119.698" y2="107.886" gradientUnits="userSpaceOnUse">
<stop stop-color="#A259FF"/>
<stop offset="0.666667" stop-color="white"/>
</linearGradient>
<linearGradient id="paint9_linear_42_4078" x1="120.481" y1="103.887" x2="117.321" y2="94.4161" gradientUnits="userSpaceOnUse">
<stop stop-color="#A259FF"/>
<stop offset="0.666667" stop-color="white"/>
</linearGradient>
<linearGradient id="paint10_linear_42_4078" x1="112.845" y1="114.984" x2="149.543" y2="59.9058" gradientUnits="userSpaceOnUse">
<stop stop-color="#A259FF"/>
<stop offset="1" stop-color="#FF6250"/>
</linearGradient>
<linearGradient id="paint11_linear_42_4078" x1="141.925" y1="178.176" x2="129.344" y2="119.127" gradientUnits="userSpaceOnUse">
<stop stop-color="#A259FF"/>
<stop offset="0.666667" stop-color="white"/>
</linearGradient>
<linearGradient id="paint12_linear_42_4078" x1="183.858" y1="123.353" x2="212.899" y2="157.154" gradientUnits="userSpaceOnUse">
<stop stop-color="#A259FF"/>
<stop offset="1" stop-color="#377DF7"/>
</linearGradient>
<linearGradient id="paint13_linear_42_4078" x1="101.593" y1="187.157" x2="76.7701" y2="161.795" gradientUnits="userSpaceOnUse">
<stop stop-color="#A259FF"/>
<stop offset="0.666667" stop-color="white"/>
</linearGradient>
<linearGradient id="paint14_linear_42_4078" x1="145.222" y1="158.179" x2="95.3253" y2="58.7031" gradientUnits="userSpaceOnUse">
<stop stop-color="#A259FF"/>
<stop offset="0.666667" stop-color="white"/>
</linearGradient>
<linearGradient id="paint15_linear_42_4078" x1="89.5636" y1="183.032" x2="105.056" y2="186.017" gradientUnits="userSpaceOnUse">
<stop stop-color="white"/>
<stop offset="1" stop-color="#BCF3FF"/>
</linearGradient>
<linearGradient id="paint16_linear_42_4078" x1="76.3057" y1="121.766" x2="167.649" y2="139" gradientUnits="userSpaceOnUse">
<stop stop-color="#AFF1FF"/>
<stop offset="1" stop-color="#65C8DE"/>
</linearGradient>
<linearGradient id="paint17_linear_42_4078" x1="151.9" y1="127.272" x2="153.386" y2="108.464" gradientUnits="userSpaceOnUse">
<stop stop-color="#A259FF"/>
<stop offset="0.666667" stop-color="white"/>
</linearGradient>
<clipPath id="clip0_42_4078">
<rect width="250" height="250" fill="white"/>
</clipPath>
</defs>
</svg>
