<svg width="250" height="250" viewBox="0 0 250 250" fill="none" xmlns="http://www.w3.org/2000/svg">
<g clip-path="url(#clip0_42_4051)">
<path d="M125 229.167C182.53 229.167 229.166 182.53 229.166 125C229.166 67.4704 182.53 20.8333 125 20.8333C67.47 20.8333 20.833 67.4704 20.833 125C20.833 182.53 67.47 229.167 125 229.167Z" fill="url(#paint0_linear_42_4051)"/>
<g filter="url(#filter0_f_42_4051)">
<path d="M125 201.087C167.022 201.087 201.087 167.022 201.087 125C201.087 82.9784 167.022 48.9131 125 48.9131C82.9784 48.9131 48.9131 82.9784 48.9131 125C48.9131 167.022 82.9784 201.087 125 201.087Z" fill="url(#paint1_linear_42_4051)"/>
</g>
<path fill-rule="evenodd" clip-rule="evenodd" d="M75.2682 46.7211C77.0109 46.7211 78.4237 45.3083 78.4237 43.5656C78.4237 41.8229 77.0109 40.4102 75.2682 40.4102C73.5255 40.4102 72.1128 41.8229 72.1128 43.5656C72.1128 45.3083 73.5255 46.7211 75.2682 46.7211ZM75.2682 49.0878C78.318 49.0878 80.7904 46.6154 80.7904 43.5656C80.7904 40.5159 78.318 38.0435 75.2682 38.0435C72.2185 38.0435 69.7461 40.5159 69.7461 43.5656C69.7461 46.6154 72.2185 49.0878 75.2682 49.0878Z" fill="white"/>
<path fill-rule="evenodd" clip-rule="evenodd" d="M46.2828 179.873C48.0256 179.873 49.4384 178.46 49.4384 176.717C49.4384 174.975 48.0256 173.563 46.2828 173.563C44.5402 173.563 43.1274 174.975 43.1274 176.717C43.1274 178.46 44.5402 179.873 46.2828 179.873ZM46.2828 182.24C49.3327 182.24 51.805 179.767 51.805 176.717C51.805 173.668 49.3327 171.196 46.2828 171.196C43.2331 171.196 40.7607 173.668 40.7607 176.717C40.7607 179.767 43.2331 182.24 46.2828 182.24Z" fill="white"/>
<path fill-rule="evenodd" clip-rule="evenodd" d="M204.797 91.1051C206.54 91.1051 207.953 89.6924 207.953 87.9497C207.953 86.207 206.54 84.7942 204.797 84.7942C203.054 84.7942 201.642 86.207 201.642 87.9497C201.642 89.6924 203.054 91.1051 204.797 91.1051ZM204.797 93.4719C207.847 93.4719 210.32 90.9991 210.32 87.9497C210.32 84.8999 207.847 82.4276 204.797 82.4276C201.747 82.4276 199.275 84.8999 199.275 87.9497C199.275 90.9991 201.747 93.4719 204.797 93.4719Z" fill="white"/>
<path d="M39.3033 47.2724C39.5354 46.3109 40.903 46.3109 41.1351 47.2724L41.9162 50.5084C41.9992 50.852 42.2675 51.1203 42.6111 51.2033L45.8471 51.9844C46.8086 52.2165 46.8086 53.5841 45.8471 53.8162L42.6111 54.5974C42.2675 54.6803 41.9992 54.9485 41.9162 55.2922L41.1351 58.5283C40.903 59.4898 39.5354 59.4898 39.3033 58.5283L38.5221 55.2922C38.4392 54.9485 38.171 54.6803 37.8273 54.5974L34.5912 53.8162C33.6297 53.5841 33.6297 52.2165 34.5912 51.9844L37.8273 51.2033C38.171 51.1203 38.4392 50.852 38.5221 50.5084L39.3033 47.2724Z" fill="white"/>
<path d="M207.694 46.7313C207.948 45.6774 209.447 45.6774 209.701 46.7313L210.558 50.2784C210.649 50.6551 210.943 50.9492 211.319 51.0401L214.866 51.8964C215.921 52.1507 215.921 53.6498 214.866 53.9043L211.319 54.7605C210.943 54.8514 210.649 55.1455 210.558 55.5221L209.701 59.0693C209.447 60.1232 207.948 60.1232 207.694 59.0693L206.837 55.5221C206.747 55.1455 206.452 54.8514 206.075 54.7605L202.528 53.9043C201.475 53.6498 201.475 52.1507 202.528 51.8964L206.075 51.0401C206.452 50.9492 206.747 50.6551 206.837 50.2784L207.694 46.7313Z" fill="url(#paint2_linear_42_4051)"/>
<path d="M49.8469 200.396C51.0461 200.204 52.0036 201.381 51.5702 202.516L48.6454 210.175C48.2121 211.31 46.713 211.55 45.9471 210.607L40.7769 204.245C40.0108 203.303 40.5525 201.884 41.7518 201.692L49.8469 200.396Z" fill="url(#paint3_linear_42_4051)"/>
<path d="M193.821 179.354C193.521 178.177 194.607 177.117 195.777 177.445L203.67 179.663C204.838 179.992 205.214 181.463 204.344 182.311L198.478 188.037C197.608 188.886 196.147 188.475 195.846 187.298L193.821 179.354Z" fill="url(#paint4_linear_42_4051)"/>
<path d="M165.316 139.37L94.9836 113.77C89.5922 111.808 83.631 114.588 81.6688 119.979L65.0658 165.595C63.1036 170.986 65.8833 176.947 71.2745 178.909L141.608 204.509C146.999 206.471 152.96 203.691 154.922 198.3L171.525 152.684C173.487 147.293 170.707 141.332 165.316 139.37Z" fill="url(#paint5_linear_42_4051)"/>
<path d="M162.461 153.498L183.237 123.572C186.509 118.859 185.341 112.386 180.629 109.114L150.702 88.3377C145.989 85.0658 139.516 86.234 136.244 90.9466L115.468 120.873C112.196 125.586 113.364 132.059 118.077 135.331L148.003 156.107C152.716 159.379 159.189 158.21 162.461 153.498Z" fill="url(#paint6_linear_42_4051)"/>
<path d="M138.808 129.681C137.537 131.433 135.095 131.821 133.343 130.549C131.592 129.278 131.205 126.836 132.476 125.084C133.747 123.332 136.189 122.945 137.941 124.216C139.692 125.488 140.08 127.93 138.808 129.681Z" fill="url(#paint7_linear_42_4051)"/>
<path d="M150.369 113.727L147.952 111.974L136.407 127.893L138.825 129.647L150.369 113.727Z" fill="url(#paint8_linear_42_4051)"/>
<path d="M152.393 132.506C151.122 134.258 148.68 134.646 146.929 133.374C145.177 132.103 144.789 129.661 146.061 127.909C147.332 126.158 149.774 125.77 151.526 127.042C153.277 128.313 153.665 130.755 152.393 132.506Z" fill="url(#paint9_linear_42_4051)"/>
<path d="M163.978 116.543L161.56 114.791L150.018 130.712L152.436 132.465L163.978 116.543Z" fill="url(#paint10_linear_42_4051)"/>
<path d="M163.947 116.584L146.416 114.102L147.956 111.971L165.484 114.461L163.947 116.584Z" fill="url(#paint11_linear_42_4051)"/>
<path d="M161.037 120.595L143.505 118.113L145.045 115.982L162.581 118.475L161.037 120.595Z" fill="url(#paint12_linear_42_4051)"/>
<path d="M147.076 87.2557L140.992 59.0674C139.782 53.4593 134.253 49.8943 128.646 51.1048L91.7852 59.0608C86.1774 60.2712 82.6124 65.7987 83.8229 71.4068L89.9072 99.5951C91.1176 105.203 96.6448 108.768 102.253 107.558L139.113 99.6014C144.722 98.3913 148.286 92.8641 147.076 87.2557Z" fill="url(#paint13_linear_42_4051)"/>
<path d="M146.596 84.3583L125.933 67.7685L117.945 83.517L109.53 78.6657L97.8963 94.8605L89.1699 96.741L89.5854 98.6939C90.9878 105.177 97.3764 109.301 103.859 107.898L137.797 100.574C144.279 99.1721 148.404 92.7835 147 86.301L146.586 84.3583H146.596Z" fill="url(#paint14_linear_42_4051)"/>
<path opacity="0.9" d="M97.6883 76.7851C100.919 76.7019 103.007 73.4608 101.75 70.4898C101.043 68.8277 99.3504 67.737 97.5424 67.7785C94.3123 67.8616 92.2236 71.1027 93.4808 74.0737C94.1874 75.7358 95.8803 76.8266 97.6883 76.7851Z" fill="white"/>
<path d="M153.834 196.63C152.396 202.673 146.011 206.112 140.174 203.987L69.9725 178.436C65.0165 176.632 62.1988 171.401 63.4194 166.27L73.3886 124.364C74.8261 118.321 81.2106 114.881 87.0476 117.006L157.25 142.558C162.205 144.361 165.023 149.592 163.803 154.724L153.834 196.63Z" fill="url(#paint15_linear_42_4051)"/>
</g>
<defs>
<filter id="filter0_f_42_4051" x="-5.08691" y="-5.08694" width="260.174" height="260.174" filterUnits="userSpaceOnUse" color-interpolation-filters="sRGB">
<feFlood flood-opacity="0" result="BackgroundImageFix"/>
<feBlend mode="normal" in="SourceGraphic" in2="BackgroundImageFix" result="shape"/>
<feGaussianBlur stdDeviation="27" result="effect1_foregroundBlur_42_4051"/>
</filter>
<linearGradient id="paint0_linear_42_4051" x1="49.8941" y1="20.8333" x2="208.897" y2="53.9321" gradientUnits="userSpaceOnUse">
<stop stop-color="#A259FF"/>
<stop offset="1" stop-color="#3B3B3B"/>
</linearGradient>
<linearGradient id="paint1_linear_42_4051" x1="212.862" y1="137.681" x2="156.245" y2="235.274" gradientUnits="userSpaceOnUse">
<stop stop-color="#A259FF" stop-opacity="0"/>
<stop offset="1" stop-color="#FF6250"/>
</linearGradient>
<linearGradient id="paint2_linear_42_4051" x1="211.673" y1="49.034" x2="225.016" y2="59.5137" gradientUnits="userSpaceOnUse">
<stop stop-color="#A259FF"/>
<stop offset="1" stop-color="#377DF7"/>
</linearGradient>
<linearGradient id="paint3_linear_42_4051" x1="51.0836" y1="204.28" x2="50.6379" y2="217.555" gradientUnits="userSpaceOnUse">
<stop stop-color="#A259FF"/>
<stop offset="1" stop-color="#377DF7"/>
</linearGradient>
<linearGradient id="paint4_linear_42_4051" x1="197.577" y1="177.77" x2="210.838" y2="177.009" gradientUnits="userSpaceOnUse">
<stop stop-color="#A259FF"/>
<stop offset="1" stop-color="#377DF7"/>
</linearGradient>
<linearGradient id="paint5_linear_42_4051" x1="144.092" y1="148.037" x2="182.892" y2="240.768" gradientUnits="userSpaceOnUse">
<stop stop-color="#A259FF"/>
<stop offset="0.416667" stop-color="#A259FF" stop-opacity="0"/>
</linearGradient>
<linearGradient id="paint6_linear_42_4051" x1="155.431" y1="141.332" x2="88.7768" y2="161.814" gradientUnits="userSpaceOnUse">
<stop stop-color="#FF7262"/>
<stop offset="0.317708" stop-color="#A259FF"/>
</linearGradient>
<linearGradient id="paint7_linear_42_4051" x1="144.953" y1="111.553" x2="152.341" y2="127.113" gradientUnits="userSpaceOnUse">
<stop stop-color="#3B3B3B"/>
<stop offset="1" stop-color="#A259FF"/>
</linearGradient>
<linearGradient id="paint8_linear_42_4051" x1="171.05" y1="84.8333" x2="177.564" y2="91.2273" gradientUnits="userSpaceOnUse">
<stop stop-color="#3B3B3B"/>
<stop offset="1" stop-color="#A259FF"/>
</linearGradient>
<linearGradient id="paint9_linear_42_4051" x1="158.538" y1="114.379" x2="165.925" y2="129.938" gradientUnits="userSpaceOnUse">
<stop stop-color="#3B3B3B"/>
<stop offset="1" stop-color="#A259FF"/>
</linearGradient>
<linearGradient id="paint10_linear_42_4051" x1="184.654" y1="87.6457" x2="191.169" y2="94.0389" gradientUnits="userSpaceOnUse">
<stop stop-color="#3B3B3B"/>
<stop offset="1" stop-color="#A259FF"/>
</linearGradient>
<linearGradient id="paint11_linear_42_4051" x1="168.053" y1="103.503" x2="167.786" y2="121.807" gradientUnits="userSpaceOnUse">
<stop stop-color="#3B3B3B"/>
<stop offset="1" stop-color="#A259FF"/>
</linearGradient>
<linearGradient id="paint12_linear_42_4051" x1="165.149" y1="107.516" x2="164.881" y2="125.821" gradientUnits="userSpaceOnUse">
<stop stop-color="#3B3B3B"/>
<stop offset="1" stop-color="#A259FF"/>
</linearGradient>
<linearGradient id="paint13_linear_42_4051" x1="123.704" y1="58.7818" x2="135.466" y2="97.2283" gradientUnits="userSpaceOnUse">
<stop stop-color="#FF7262"/>
<stop offset="1" stop-color="#A259FF"/>
</linearGradient>
<linearGradient id="paint14_linear_42_4051" x1="115.393" y1="123.189" x2="102.615" y2="75.9933" gradientUnits="userSpaceOnUse">
<stop stop-color="#A259FF"/>
<stop offset="1" stop-color="white"/>
</linearGradient>
<linearGradient id="paint15_linear_42_4051" x1="137.015" y1="183.7" x2="88.1547" y2="59.3853" gradientUnits="userSpaceOnUse">
<stop stop-color="#A259FF"/>
<stop offset="0.666667" stop-color="white"/>
</linearGradient>
<clipPath id="clip0_42_4051">
<rect width="250" height="250" fill="white"/>
</clipPath>
</defs>
</svg>
