<svg width="250" height="250" viewBox="0 0 250 250" fill="none" xmlns="http://www.w3.org/2000/svg">
<g clip-path="url(#clip0_42_4003)">
<path d="M125 229.167C182.53 229.167 229.166 182.53 229.166 125C229.166 67.4704 182.53 20.8333 125 20.8333C67.47 20.8333 20.833 67.4704 20.833 125C20.833 182.53 67.47 229.167 125 229.167Z" fill="url(#paint0_linear_42_4003)"/>
<g filter="url(#filter0_f_42_4003)">
<path d="M125 201.087C167.022 201.087 201.087 167.022 201.087 125C201.087 82.9784 167.022 48.9131 125 48.9131C82.9784 48.9131 48.9131 82.9784 48.9131 125C48.9131 167.022 82.9784 201.087 125 201.087Z" fill="url(#paint1_linear_42_4003)"/>
</g>
<path fill-rule="evenodd" clip-rule="evenodd" d="M117.84 40.3805C119.583 40.3805 120.996 38.9678 120.996 37.225C120.996 35.4824 119.583 34.0696 117.84 34.0696C116.097 34.0696 114.685 35.4824 114.685 37.225C114.685 38.9678 116.097 40.3805 117.84 40.3805ZM117.84 42.7472C120.89 42.7472 123.363 40.2748 123.363 37.225C123.363 34.1753 120.89 31.7029 117.84 31.7029C114.79 31.7029 112.318 34.1753 112.318 37.225C112.318 40.2748 114.79 42.7472 117.84 42.7472Z" fill="white"/>
<path fill-rule="evenodd" clip-rule="evenodd" d="M42.6598 185.308C44.4026 185.308 45.8153 183.895 45.8153 182.152C45.8153 180.409 44.4026 178.997 42.6598 178.997C40.9171 178.997 39.5044 180.409 39.5044 182.152C39.5044 183.895 40.9171 185.308 42.6598 185.308ZM42.6598 187.675C45.7096 187.675 48.182 185.202 48.182 182.152C48.182 179.102 45.7096 176.63 42.6598 176.63C39.6101 176.63 37.1377 179.102 37.1377 182.152C37.1377 185.202 39.6101 187.675 42.6598 187.675Z" fill="white"/>
<path fill-rule="evenodd" clip-rule="evenodd" d="M215.668 178.062C217.411 178.062 218.824 176.649 218.824 174.906C218.824 173.163 217.411 171.751 215.668 171.751C213.925 171.751 212.513 173.163 212.513 174.906C212.513 176.649 213.925 178.062 215.668 178.062ZM215.668 180.428C218.718 180.428 221.191 177.956 221.191 174.906C221.191 171.856 218.718 169.384 215.668 169.384C212.618 169.384 210.146 171.856 210.146 174.906C210.146 177.956 212.618 180.428 215.668 180.428Z" fill="white"/>
<path d="M66.4771 54.5188C66.7092 53.5573 68.0768 53.5573 68.3089 54.5188L69.0901 57.7548C69.173 58.0984 69.4413 58.3667 69.7849 58.4496L73.021 59.2308C73.9825 59.4629 73.9825 60.8305 73.021 61.0626L69.7849 61.8438C69.4413 61.9267 69.173 62.1949 69.0901 62.5386L68.3089 65.7746C68.0768 66.7362 66.7092 66.7362 66.4771 65.7746L65.696 62.5386C65.613 62.1949 65.3448 61.9267 65.0011 61.8438L61.7651 61.0626C60.8036 60.8305 60.8036 59.4629 61.7651 59.2308L65.0011 58.4496C65.3448 58.3667 65.613 58.0984 65.696 57.7548L66.4771 54.5188Z" fill="white"/>
<path d="M200.45 196.187C200.704 195.134 202.203 195.134 202.458 196.187L203.314 199.735C203.404 200.111 203.699 200.406 204.076 200.496L207.623 201.353C208.676 201.607 208.676 203.106 207.623 203.361L204.076 204.217C203.699 204.308 203.404 204.602 203.314 204.978L202.458 208.525C202.203 209.58 200.704 209.58 200.45 208.525L199.593 204.978C199.502 204.602 199.208 204.308 198.832 204.217L195.285 203.361C194.231 203.106 194.231 201.607 195.285 201.353L198.832 200.496C199.208 200.406 199.502 200.111 199.593 199.735L200.45 196.187Z" fill="url(#paint2_linear_42_4003)"/>
<path d="M51.6584 209.454C52.8577 209.262 53.8151 210.439 53.3818 211.574L50.4569 219.233C50.0236 220.368 48.5245 220.608 47.7586 219.665L42.5884 213.303C41.8223 212.361 42.364 210.942 43.5633 210.75L51.6584 209.454Z" fill="url(#paint3_linear_42_4003)"/>
<path d="M205.598 62.506C205.298 61.3291 206.385 60.2687 207.554 60.5973L215.447 62.8152C216.615 63.1438 216.991 64.6149 216.122 65.4632L210.255 71.1894C209.385 72.0377 207.924 71.627 207.624 70.4501L205.598 62.506Z" fill="url(#paint4_linear_42_4003)"/>
<path d="M179.318 117.492L162.205 120.819C157.335 121.764 154.156 126.479 155.102 131.348C156.049 136.216 160.763 139.396 165.631 138.45L182.745 135.123C187.614 134.177 190.793 129.463 189.847 124.594C188.901 119.726 184.187 116.545 179.318 117.492Z" fill="url(#paint5_linear_42_4003)"/>
<path d="M186.043 126.272C186.129 124.055 184.403 122.188 182.185 122.102C179.969 122.015 178.102 123.743 178.016 125.959C177.929 128.176 179.656 130.043 181.873 130.13C184.09 130.216 185.957 128.488 186.043 126.272Z" fill="#EBEBEB"/>
<path d="M182.447 128.274C183.639 128.042 184.417 126.888 184.186 125.697C183.954 124.505 182.8 123.726 181.608 123.957C180.417 124.189 179.638 125.343 179.87 126.535C180.102 127.726 181.256 128.505 182.447 128.274Z" fill="#DBDBDB"/>
<path d="M152.184 90.4437L64.802 107.429C59.8914 108.383 56.6843 113.139 57.6388 118.049L69.4451 178.786C70.3996 183.697 75.1542 186.904 80.0649 185.949L167.446 168.965C172.358 168.01 175.564 163.255 174.61 158.344L162.803 97.6069C161.849 92.6965 157.095 89.4892 152.184 90.4437Z" fill="url(#paint6_linear_42_4003)"/>
<path d="M150.587 62.8245L168.436 108.962C169.435 111.541 168.151 114.441 165.577 115.438L92.4036 143.747C89.829 144.745 86.9287 143.461 85.9292 140.882L68.08 94.7446C67.1535 92.3442 68.3438 89.6471 70.7448 88.7207L144.56 60.1655C146.962 59.239 149.658 60.4293 150.585 62.8303L150.587 62.8245Z" fill="url(#paint7_linear_42_4003)"/>
<path d="M154.024 107.062C154.939 109.434 153.763 112.101 151.39 113.016C149.019 113.932 146.35 112.755 145.436 110.382C144.52 108.011 145.697 105.343 148.07 104.428C150.441 103.513 153.11 104.69 154.024 107.062Z" fill="url(#paint8_linear_42_4003)"/>
<path d="M159.311 105.013C160.227 107.385 159.049 110.053 156.678 110.968C154.306 111.883 151.638 110.706 150.722 108.334C149.807 105.962 150.985 103.294 153.356 102.38C155.729 101.464 158.396 102.641 159.311 105.013Z" fill="url(#paint9_linear_42_4003)"/>
<path d="M90.1348 90.3261L78.1463 94.9638C77.1797 95.3379 76.6993 96.4248 77.0732 97.3913L79.8605 104.596C80.2344 105.562 81.3212 106.043 82.2878 105.669L94.2758 101.031C95.2432 100.658 95.7233 99.5706 95.3492 98.6042L92.562 91.3994C92.188 90.4326 91.101 89.9522 90.1348 90.3261Z" fill="url(#paint10_linear_42_4003)"/>
<path d="M144.7 75.9628L137.69 78.6726C136.068 79.2956 134.247 78.4918 133.62 76.8707C132.997 75.2481 133.801 73.4273 135.422 72.8002L142.431 70.0903C144.053 69.4633 145.875 70.2713 146.502 71.8923C147.125 73.5149 146.321 75.3358 144.7 75.9628Z" fill="white"/>
<path d="M83.7418 116.319L83.252 116.938C83.252 116.938 83.2115 116.982 83.1823 116.993C83.1239 117.015 83.061 117.001 83.02 116.969C82.9421 116.903 82.9319 116.802 82.9967 116.734L83.661 115.871C83.7175 115.806 83.8314 115.792 83.8962 115.848C83.9314 115.878 83.95 115.913 83.9619 115.957L85.5595 120.082C85.5916 120.165 85.5562 120.26 85.4645 120.295C85.381 120.327 85.2829 120.284 85.2509 120.2L83.7502 116.315L83.7418 116.319Z" fill="#F8F8F8"/>
<path d="M86.6082 119.535L87.972 116.829C88.1327 116.499 88.1476 116.139 88.0244 115.818C87.9187 115.543 87.7087 115.308 87.4236 115.163C87.1023 115 86.7357 114.992 86.4245 115.116C86.1408 115.226 85.9023 115.427 85.7539 115.714L85.6139 115.997C85.5754 116.083 85.4695 116.12 85.3954 116.076C85.3088 116.037 85.2729 115.932 85.3163 115.858L85.4547 115.57C85.6423 115.211 85.9514 114.944 86.306 114.808C86.698 114.657 87.152 114.655 87.5705 114.872C87.9421 115.055 88.2017 115.358 88.3346 115.704C88.4868 116.101 88.482 116.562 88.2745 116.981L87.1069 119.301L89.2342 118.484C89.316 118.447 89.4126 118.487 89.4478 118.579C89.4798 118.662 89.4361 118.761 89.3527 118.793L86.849 119.763L86.824 119.773C86.7781 119.791 86.7273 119.795 86.6896 119.772C86.604 119.723 86.5671 119.627 86.6057 119.541L86.6082 119.535Z" fill="#F8F8F8"/>
<path d="M91.5932 113.083L90.894 114.726C91.1992 114.676 91.5217 114.705 91.8224 114.839C92.2318 115.021 92.5325 115.355 92.6829 115.747C92.8333 116.139 92.8378 116.588 92.6512 116.999C92.4691 117.409 92.1358 117.714 91.7454 117.869C91.3623 118.015 90.9139 118.02 90.5024 117.833C90.4174 117.799 90.3748 117.701 90.416 117.609C90.4488 117.519 90.5489 117.481 90.6412 117.522C90.9673 117.66 91.3161 117.66 91.6249 117.542C91.9338 117.423 92.1974 117.187 92.346 116.863C92.4918 116.534 92.4864 116.182 92.3677 115.873C92.249 115.564 92.0144 115.301 91.6883 115.163C91.3632 115.014 91.0117 115.021 90.7028 115.139C90.653 115.159 90.5969 115.15 90.5494 115.126L90.5411 115.13C90.4503 115.092 90.4103 114.988 90.453 114.899L91.1249 113.321L89.4021 113.982C89.3119 114.022 89.2138 113.978 89.1802 113.89C89.145 113.799 89.1886 113.7 89.2762 113.667L91.3786 112.86C91.4682 112.821 91.567 112.864 91.6005 112.952C91.6104 112.976 91.6114 113.005 91.6068 113.031C91.6068 113.054 91.6005 113.076 91.5923 113.093L91.5932 113.083Z" fill="#F8F8F8"/>
<path d="M96.6349 114.91L94.2029 115.853L94.182 115.861C94.1485 115.874 94.1078 115.88 94.0734 115.865C93.9828 115.842 93.9348 115.741 93.9692 115.656L95.3179 111.415L95.3224 111.403C95.3541 111.31 95.4384 111.268 95.5317 111.299C95.5643 111.311 95.5888 111.335 95.6105 111.355C95.615 111.368 95.6268 111.372 95.6286 111.377L95.6368 111.398L96.8279 114.477L97.1286 114.361C97.2201 114.327 97.3188 114.37 97.3505 114.454C97.3822 114.537 97.3388 114.635 97.2509 114.668L96.9511 114.784L97.2473 115.556C97.279 115.639 97.2355 115.737 97.1476 115.771C97.0643 115.803 96.9665 115.759 96.9339 115.676L96.6377 114.904L96.6349 114.91ZM96.5172 114.601L95.4982 111.973L94.3931 115.427L96.5199 114.61L96.5172 114.601Z" fill="#F8F8F8"/>
<path d="M102.449 113.214C102.359 113.177 102.319 113.072 102.363 112.988C102.402 112.902 102.504 112.858 102.592 112.9C102.918 113.039 103.268 113.039 103.576 112.92C103.885 112.802 104.14 112.57 104.287 112.241C104.434 111.911 104.429 111.563 104.311 111.255C104.191 110.942 103.956 110.678 103.632 110.534C103.311 110.395 102.957 110.397 102.648 110.514C102.335 110.635 102.076 110.869 101.929 111.197C101.89 111.284 101.786 111.324 101.704 111.284C101.678 111.28 101.658 111.264 101.648 111.248L101.644 111.24C101.644 111.24 101.631 111.231 101.628 111.223C101.615 111.213 101.607 111.192 101.6 111.176C101.597 111.168 101.596 111.153 101.591 111.14L101.108 109.245C101.089 109.195 101.098 109.143 101.126 109.104C101.141 109.069 101.174 109.043 101.215 109.026L103.31 108.223C103.399 108.183 103.497 108.226 103.532 108.314C103.568 108.41 103.523 108.505 103.436 108.538L101.475 109.291L101.831 110.695C102.008 110.468 102.244 110.297 102.515 110.193C102.908 110.043 103.344 110.033 103.761 110.222C104.179 110.401 104.468 110.73 104.622 111.13C104.769 111.514 104.785 111.968 104.594 112.381C104.41 112.786 104.073 113.093 103.686 113.242C103.293 113.392 102.845 113.397 102.436 113.215L102.449 113.214Z" fill="#F8F8F8"/>
<path d="M105.542 108.491C105.642 107.826 106.003 107.223 106.739 106.907C106.819 106.867 106.917 106.91 106.958 106.991C106.992 107.082 106.949 107.18 106.867 107.216C106.247 107.484 105.976 107.961 105.871 108.537C105.817 108.859 105.839 109.215 105.9 109.56C106.053 109.147 106.372 108.794 106.815 108.625C107.644 108.306 108.562 108.715 108.876 109.533C109.192 110.354 108.787 111.27 107.962 111.591C107.158 111.9 106.259 111.518 105.924 110.733C105.875 110.641 105.838 110.545 105.798 110.441C105.574 109.843 105.443 109.141 105.547 108.489L105.542 108.491ZM106.228 110.587C106.24 110.62 106.259 110.642 106.272 110.666C106.28 110.687 106.285 110.699 106.281 110.715C106.58 111.256 107.246 111.507 107.835 111.282C108.49 111.031 108.811 110.299 108.565 109.657C108.318 109.014 107.586 108.692 106.932 108.944C106.289 109.19 105.967 109.921 106.214 110.564L106.223 110.589L106.228 110.587Z" fill="#F8F8F8"/>
<path d="M111 110.168L111.136 105.584L108.962 106.418C108.88 106.454 108.783 106.415 108.752 106.332C108.72 106.248 108.763 106.149 108.847 106.118L111.224 105.205C111.253 105.179 111.282 105.168 111.32 105.168C111.366 105.175 111.414 105.199 111.441 105.232C111.457 105.25 111.466 105.261 111.473 105.277C111.485 105.311 111.486 105.339 111.479 105.37L111.339 110.177C111.336 110.245 111.291 110.305 111.233 110.327C111.208 110.337 111.195 110.341 111.166 110.339C111.074 110.336 111 110.255 110.995 110.169L111 110.168Z" fill="#F8F8F8"/>
<path d="M113.782 104.174C114.295 103.977 114.88 104.231 115.078 104.744C115.197 105.057 115.148 105.387 114.986 105.65C115.602 105.662 116.179 106.043 116.412 106.649C116.723 107.457 116.326 108.357 115.518 108.671C114.713 108.981 113.81 108.585 113.496 107.778C113.263 107.173 113.433 106.505 113.873 106.082C113.582 105.997 113.328 105.784 113.208 105.471C113.011 104.958 113.258 104.38 113.78 104.179L113.782 104.174ZM115.402 108.357C116.044 108.111 116.351 107.399 116.108 106.765C115.866 106.136 115.159 105.813 114.515 106.061C113.881 106.303 113.569 107.022 113.811 107.652C114.055 108.29 114.768 108.601 115.402 108.357ZM114.389 105.741C114.731 105.6 114.906 105.207 114.774 104.861C114.64 104.515 114.251 104.348 113.905 104.481C113.559 104.614 113.39 104.999 113.524 105.345C113.657 105.691 114.044 105.868 114.392 105.739L114.389 105.741Z" fill="#F8F8F8"/>
<path d="M121.766 101.086C122.538 100.79 123.381 101.118 123.748 101.823C123.761 101.833 123.764 101.841 123.773 101.852C123.828 101.97 123.882 102.098 123.933 102.231C124.162 102.828 124.291 103.539 124.196 104.188C124.092 104.841 123.727 105.459 123 105.772L122.991 105.775C122.9 105.811 122.805 105.775 122.772 105.692C122.738 105.6 122.774 105.509 122.863 105.466C123.473 105.197 123.763 104.718 123.859 104.145C123.909 103.815 123.899 103.465 123.83 103.122C123.677 103.535 123.353 103.875 122.903 104.048C122.085 104.361 121.168 103.967 120.845 103.139C120.531 102.322 120.94 101.403 121.758 101.09L121.766 101.086ZM123.511 102.106C123.265 101.464 122.54 101.148 121.886 101.399C121.243 101.646 120.92 102.373 121.165 103.012C121.416 103.667 122.143 103.976 122.785 103.729C123.44 103.478 123.763 102.761 123.507 102.107L123.511 102.106Z" fill="#F8F8F8"/>
<path d="M125.268 102.316C125.036 101.712 124.975 101.103 125.089 100.576C125.21 100.071 125.497 99.6449 125.951 99.4701C126.406 99.2953 126.908 99.4185 127.335 99.7092C127.767 100.023 128.145 100.509 128.382 101.112C128.613 101.716 128.662 102.33 128.549 102.847C128.43 103.357 128.144 103.787 127.69 103.962C127.235 104.136 126.733 104.013 126.303 103.714C125.871 103.411 125.499 102.918 125.267 102.312L125.268 102.316ZM125.581 102.197C125.793 102.747 126.133 103.186 126.5 103.442C126.864 103.695 127.248 103.773 127.57 103.649C127.891 103.525 128.114 103.21 128.221 102.777C128.317 102.342 128.281 101.787 128.07 101.236C127.859 100.686 127.509 100.25 127.147 99.9918C126.774 99.7292 126.399 99.6621 126.077 99.7853C125.756 99.9085 125.519 100.215 125.426 100.658C125.33 101.091 125.374 101.644 125.587 102.199L125.581 102.197Z" fill="#F8F8F8"/>
<path d="M129.763 98.5172L129.274 99.1368C129.274 99.1368 129.233 99.1803 129.204 99.192C129.145 99.2147 129.083 99.2002 129.041 99.1685C128.963 99.1024 128.953 99.0009 129.019 98.933L129.683 98.0698C129.74 98.0054 129.853 97.99 129.918 98.0471C129.953 98.0761 129.972 98.1123 129.983 98.1558L131.581 102.28C131.613 102.364 131.577 102.458 131.486 102.494C131.403 102.526 131.305 102.482 131.272 102.399L129.772 98.5145L129.763 98.5172Z" fill="#F8F8F8"/>
<path d="M132.629 101.731L133.993 99.0254C134.154 98.6956 134.168 98.3351 134.045 98.0145C133.939 97.7391 133.73 97.5036 133.445 97.3596C133.123 97.1957 132.756 97.1884 132.445 97.3125C132.162 97.4212 131.925 97.6268 131.774 97.9094L131.635 98.1929C131.596 98.2799 131.49 98.3152 131.416 98.2717C131.33 98.2337 131.293 98.1277 131.337 98.0534L131.475 97.7663C131.663 97.4067 131.972 97.1395 132.325 96.9991C132.717 96.8487 133.171 96.8469 133.59 97.0643C133.961 97.2473 134.221 97.5498 134.354 97.8958C134.506 98.2917 134.501 98.7536 134.293 99.173L133.126 101.493L135.253 100.676C135.335 100.639 135.434 100.683 135.467 100.771C135.499 100.854 135.455 100.952 135.372 100.985L132.868 101.955L132.843 101.965C132.797 101.982 132.746 101.987 132.709 101.964C132.623 101.915 132.586 101.819 132.625 101.733L132.629 101.731Z" fill="#F8F8F8"/>
<path d="M141.461 93.7926L140.761 95.4357C141.067 95.385 141.389 95.414 141.689 95.548C142.1 95.7301 142.4 96.0643 142.551 96.4565C142.701 96.8487 142.705 97.2971 142.519 97.7084C142.336 98.1187 142.003 98.423 141.617 98.5761C141.234 98.7238 140.781 98.7301 140.369 98.5435C140.284 98.5091 140.242 98.4103 140.283 98.3179C140.318 98.2328 140.416 98.1902 140.508 98.231C140.834 98.3696 141.184 98.3696 141.493 98.2509C141.801 98.1323 142.065 97.8968 142.213 97.5725C142.359 97.2437 142.353 96.8913 142.235 96.5824C142.117 96.2745 141.881 96.01 141.555 95.8723C141.231 95.7237 140.878 95.7301 140.57 95.8487C140.52 95.8678 140.465 95.8605 140.417 95.8352L140.408 95.8388C140.318 95.8016 140.277 95.6975 140.321 95.6087L140.992 94.0308L139.269 94.692C139.179 94.731 139.081 94.6875 139.047 94.5997C139.013 94.5082 139.056 94.4094 139.143 94.3759L141.245 93.5689C141.336 93.5299 141.434 93.5734 141.467 93.6612C141.477 93.6866 141.478 93.7147 141.474 93.74C141.474 93.7645 141.467 93.7853 141.46 93.8025L141.461 93.7926Z" fill="#F8F8F8"/>
<path d="M146.503 95.6196L144.067 96.5553L144.06 96.5625L144.048 96.567C144.015 96.5797 143.976 96.5906 143.94 96.5707C143.849 96.548 143.801 96.4466 143.835 96.3614L145.184 92.1205L145.189 92.1087C145.22 92.0154 145.305 91.9737 145.398 92.0054C145.43 92.0163 145.455 92.0408 145.477 92.0607C145.481 92.0734 145.489 92.0797 145.495 92.0824L145.503 92.1033L146.694 95.183L146.995 95.0679C147.086 95.0326 147.185 95.0761 147.217 95.1594C147.248 95.2428 147.205 95.3415 147.117 95.375L146.817 95.49L147.113 96.2618C147.145 96.3451 147.102 96.4429 147.014 96.4765C146.93 96.5091 146.833 96.4656 146.8 96.3813L146.504 95.6096L146.503 95.6196ZM146.384 95.3116L145.366 92.6821L144.26 96.1359L146.388 95.3198L146.384 95.3116Z" fill="#F8F8F8"/>
<path d="M148.47 95.4094C148.379 95.3723 148.339 95.2681 148.384 95.1839C148.422 95.0978 148.527 95.0571 148.613 95.096C148.939 95.2337 149.288 95.2337 149.597 95.116C149.905 94.9973 150.161 94.7654 150.308 94.4357C150.454 94.1069 150.45 93.7591 150.331 93.4502C150.211 93.1377 149.976 92.8741 149.653 92.7301C149.329 92.5861 148.977 92.5915 148.669 92.7102C148.356 92.8306 148.097 93.0643 147.95 93.3931C147.911 93.4801 147.808 93.5236 147.724 93.4792C147.699 93.4746 147.678 93.4593 147.668 93.4439L147.664 93.4357C147.664 93.4357 147.652 93.4266 147.648 93.4176C147.635 93.4085 147.627 93.3877 147.621 93.3714C147.617 93.3623 147.616 93.3487 147.612 93.3361L147.128 91.4402C147.109 91.3895 147.118 91.3388 147.146 91.2989C147.162 91.2645 147.194 91.2373 147.236 91.2219L149.329 90.4178C149.42 90.3784 149.518 90.4221 149.551 90.5097C149.588 90.606 149.543 90.6993 149.455 90.7328L147.495 91.4855L147.852 92.8895C148.03 92.6685 148.264 92.4919 148.536 92.3886C148.927 92.2373 149.364 92.2283 149.781 92.4176C150.2 92.5969 150.489 92.9257 150.643 93.3261C150.789 93.7102 150.806 94.1631 150.615 94.5761C150.431 94.9819 150.094 95.2881 149.706 95.4375C149.314 95.5879 148.866 95.5924 148.456 95.4103L148.47 95.4094Z" fill="#F8F8F8"/>
<path d="M151.562 90.6866C151.662 90.0214 152.021 89.414 152.759 89.1023C152.839 89.062 152.937 89.1057 152.977 89.1859C153.012 89.2777 152.969 89.3758 152.887 89.412C152.269 89.683 151.995 90.1563 151.891 90.7328C151.837 91.0543 151.859 91.4094 151.92 91.7554C152.073 91.3424 152.392 90.99 152.834 90.8206C153.664 90.5016 154.582 90.9103 154.896 91.7273C155.212 92.5498 154.807 93.4656 153.982 93.7871C153.177 94.096 152.28 93.7138 151.944 92.9275C151.895 92.8369 151.858 92.7409 151.818 92.6368C151.593 92.038 151.462 91.3369 151.567 90.6848L151.562 90.6866ZM152.248 92.7826C152.261 92.8161 152.279 92.8378 152.292 92.8614C152.3 92.8822 152.305 92.8949 152.301 92.9103C152.6 93.4511 153.266 93.7029 153.854 93.4773C154.509 93.2255 154.831 92.4945 154.585 91.8523C154.338 91.2092 153.607 90.8877 152.952 91.1386C152.309 91.3858 151.987 92.1168 152.233 92.759L152.243 92.7844L152.248 92.7826Z" fill="#F8F8F8"/>
<path d="M128.036 112.685L88.8535 127.843L89.5983 129.768L128.78 114.61L128.036 112.685Z" fill="url(#paint11_linear_42_4003)"/>
<path d="M118.249 121.39L90.5088 132.122L91.2533 134.048L118.993 123.316L118.249 121.39Z" fill="url(#paint12_linear_42_4003)"/>
<path d="M128.828 75.3523L111.214 82.1666C110.682 82.3723 110.418 82.9699 110.623 83.5016C110.829 84.0332 111.427 84.2975 111.959 84.0918L129.573 77.2775C130.104 77.0718 130.368 76.4741 130.162 75.9425C129.957 75.4109 129.359 75.1466 128.828 75.3523Z" fill="#3B3B3B"/>
<path d="M161.106 124.534L69.3008 142.38L76.445 179.134L168.251 161.289L161.106 124.534Z" fill="url(#paint13_linear_42_4003)"/>
<path opacity="0.2" d="M161.106 124.534L69.3008 142.38L76.445 179.134L168.251 161.289L161.106 124.534Z" fill="black"/>
<path d="M169.586 183.286L79.136 187.863C74.6323 188.091 70.647 184.972 69.7866 180.545L56.7663 113.562C56.4591 111.981 58.0832 110.725 59.536 111.419C61.2219 112.225 63.0953 112.566 64.9625 112.409L146.216 105.458C150.829 105.063 154.997 108.21 155.88 112.755L169.589 183.281C169.589 183.283 169.587 183.285 169.586 183.286Z" fill="url(#paint14_linear_42_4003)"/>
<path d="M150.374 150.298C152.479 149.889 153.808 147.613 153.342 145.216C152.876 142.818 150.792 141.206 148.687 141.614C146.582 142.024 145.253 144.299 145.719 146.697C146.186 149.095 148.27 150.707 150.374 150.298Z" fill="#EBEBEB"/>
<path d="M151.303 145.612C151.519 146.726 150.901 147.784 149.923 147.974C148.945 148.164 147.976 147.415 147.759 146.301C147.543 145.188 148.16 144.13 149.139 143.939C150.117 143.749 151.086 144.498 151.303 145.612Z" fill="#DBDBDB"/>
</g>
<defs>
<filter id="filter0_f_42_4003" x="-5.08691" y="-5.08694" width="260.174" height="260.174" filterUnits="userSpaceOnUse" color-interpolation-filters="sRGB">
<feFlood flood-opacity="0" result="BackgroundImageFix"/>
<feBlend mode="normal" in="SourceGraphic" in2="BackgroundImageFix" result="shape"/>
<feGaussianBlur stdDeviation="27" result="effect1_foregroundBlur_42_4003"/>
</filter>
<linearGradient id="paint0_linear_42_4003" x1="49.8941" y1="20.8333" x2="208.897" y2="53.9321" gradientUnits="userSpaceOnUse">
<stop stop-color="#A259FF"/>
<stop offset="1" stop-color="#3B3B3B"/>
</linearGradient>
<linearGradient id="paint1_linear_42_4003" x1="73.5508" y1="48.9131" x2="220.705" y2="77.2927" gradientUnits="userSpaceOnUse">
<stop stop-color="#A259FF" stop-opacity="0"/>
<stop offset="1" stop-color="#FF6250"/>
</linearGradient>
<linearGradient id="paint2_linear_42_4003" x1="204.429" y1="198.491" x2="217.771" y2="208.97" gradientUnits="userSpaceOnUse">
<stop stop-color="#A259FF"/>
<stop offset="1" stop-color="#377DF7"/>
</linearGradient>
<linearGradient id="paint3_linear_42_4003" x1="52.8952" y1="213.338" x2="52.4494" y2="226.613" gradientUnits="userSpaceOnUse">
<stop stop-color="#A259FF"/>
<stop offset="1" stop-color="#377DF7"/>
</linearGradient>
<linearGradient id="paint4_linear_42_4003" x1="209.355" y1="60.9218" x2="222.616" y2="60.1613" gradientUnits="userSpaceOnUse">
<stop stop-color="#A259FF"/>
<stop offset="1" stop-color="#377DF7"/>
</linearGradient>
<linearGradient id="paint5_linear_42_4003" x1="159.014" y1="121.438" x2="191.714" y2="127.092" gradientUnits="userSpaceOnUse">
<stop stop-color="#A259FF"/>
<stop offset="1" stop-color="#3B3B3B"/>
</linearGradient>
<linearGradient id="paint6_linear_42_4003" x1="137.498" y1="203.71" x2="102.173" y2="134.34" gradientUnits="userSpaceOnUse">
<stop stop-color="#A259FF"/>
<stop offset="1" stop-color="#3B3B3B"/>
</linearGradient>
<linearGradient id="paint7_linear_42_4003" x1="79.7244" y1="85.0535" x2="164.798" y2="77.7054" gradientUnits="userSpaceOnUse">
<stop stop-color="#A259FF"/>
<stop offset="1" stop-color="#FF6250"/>
</linearGradient>
<linearGradient id="paint8_linear_42_4003" x1="145.173" y1="105.54" x2="154.102" y2="103.952" gradientUnits="userSpaceOnUse">
<stop stop-color="#A259FF"/>
<stop offset="1" stop-color="#FF6250"/>
</linearGradient>
<linearGradient id="paint9_linear_42_4003" x1="150.46" y1="103.491" x2="159.389" y2="101.903" gradientUnits="userSpaceOnUse">
<stop stop-color="#A259FF"/>
<stop offset="1" stop-color="#3B3B3B"/>
</linearGradient>
<linearGradient id="paint10_linear_42_4003" x1="78.9038" y1="94.6712" x2="94.8727" y2="93.1168" gradientUnits="userSpaceOnUse">
<stop stop-color="#A259FF"/>
<stop offset="1" stop-color="#3B3B3B"/>
</linearGradient>
<linearGradient id="paint11_linear_42_4003" x1="95.1971" y1="125.389" x2="101.23" y2="133.864" gradientUnits="userSpaceOnUse">
<stop stop-color="#A259FF"/>
<stop offset="1" stop-color="#FF6250"/>
</linearGradient>
<linearGradient id="paint12_linear_42_4003" x1="94.9996" y1="130.385" x2="101.619" y2="138.015" gradientUnits="userSpaceOnUse">
<stop stop-color="#A259FF"/>
<stop offset="1" stop-color="#FF6250"/>
</linearGradient>
<linearGradient id="paint13_linear_42_4003" x1="84.1645" y1="139.491" x2="165.898" y2="160.966" gradientUnits="userSpaceOnUse">
<stop stop-color="#A259FF"/>
<stop offset="1" stop-color="#3B3B3B"/>
</linearGradient>
<linearGradient id="paint14_linear_42_4003" x1="145.194" y1="160.976" x2="3.60562" y2="93.0226" gradientUnits="userSpaceOnUse">
<stop stop-color="#A259FF"/>
<stop offset="0.666667" stop-color="white"/>
</linearGradient>
<clipPath id="clip0_42_4003">
<rect width="250" height="250" fill="white"/>
</clipPath>
</defs>
</svg>
